<mxfile host="app.diagrams.net" modified="2023-06-30T12:23:46.474Z" agent="Mozilla/5.0 (Windows NT 10.0; Win64; x64) AppleWebKit/537.36 (KHTML, like Gecko) Chrome/114.0.0.0 Safari/537.36" etag="JkXL4n9CV3ea152FKNZ5" version="21.1.7" type="github">
  <diagram id="e5XlmohRygcE3HAHiwtp" name="第 1 页">
    <mxGraphModel dx="1195" dy="630" grid="1" gridSize="10" guides="1" tooltips="1" connect="1" arrows="1" fold="1" page="1" pageScale="1" pageWidth="827" pageHeight="1169" math="0" shadow="0">
      <root>
        <mxCell id="0" />
        <mxCell id="1" parent="0" />
        <mxCell id="fQrozdUmTU6Yqc6vimsS-58" value="" style="rounded=0;whiteSpace=wrap;html=1;fillColor=#e1d5e7;strokeColor=#9673a6;" vertex="1" parent="1">
          <mxGeometry x="20" y="780" width="730" height="440" as="geometry" />
        </mxCell>
        <mxCell id="fQrozdUmTU6Yqc6vimsS-57" value="" style="rounded=0;whiteSpace=wrap;html=1;fillColor=#f8cecc;strokeColor=#b85450;" vertex="1" parent="1">
          <mxGeometry x="20" y="20" width="730" height="640" as="geometry" />
        </mxCell>
        <mxCell id="dhido_0Bd_AG6LenjZ0B-5" value="杭州环境" style="points=[[0,0],[0.25,0],[0.5,0],[0.75,0],[1,0],[1,0.25],[1,0.5],[1,0.75],[1,1],[0.75,1],[0.5,1],[0.25,1],[0,1],[0,0.75],[0,0.5],[0,0.25]];outlineConnect=0;html=1;whiteSpace=wrap;fontSize=12;fontStyle=0;container=1;pointerEvents=0;collapsible=0;recursiveResize=0;shape=mxgraph.aws4.group;grIcon=mxgraph.aws4.group_on_premise;strokeColor=#82b366;fillColor=#d5e8d4;verticalAlign=top;align=left;spacingLeft=30;dashed=0;" parent="1" vertex="1">
          <mxGeometry x="40" y="40" width="130" height="200" as="geometry" />
        </mxCell>
        <mxCell id="dhido_0Bd_AG6LenjZ0B-11" value="mysql" style="verticalLabelPosition=bottom;html=1;verticalAlign=top;align=center;strokeColor=none;fillColor=#00BEF2;shape=mxgraph.azure.mysql_database;" parent="dhido_0Bd_AG6LenjZ0B-5" vertex="1">
          <mxGeometry x="1.25" y="40" width="37.5" height="50" as="geometry" />
        </mxCell>
        <mxCell id="dhido_0Bd_AG6LenjZ0B-8" value="kafka" style="sketch=0;points=[[0,0,0],[0.25,0,0],[0.5,0,0],[0.75,0,0],[1,0,0],[0,1,0],[0.25,1,0],[0.5,1,0],[0.75,1,0],[1,1,0],[0,0.25,0],[0,0.5,0],[0,0.75,0],[1,0.25,0],[1,0.5,0],[1,0.75,0]];outlineConnect=0;fontColor=#232F3E;gradientColor=#945DF2;gradientDirection=north;fillColor=#5A30B5;strokeColor=#ffffff;dashed=0;verticalLabelPosition=bottom;verticalAlign=top;align=center;html=1;fontSize=12;fontStyle=0;aspect=fixed;shape=mxgraph.aws4.resourceIcon;resIcon=mxgraph.aws4.managed_streaming_for_kafka;" parent="dhido_0Bd_AG6LenjZ0B-5" vertex="1">
          <mxGeometry x="80" y="120" width="40" height="40" as="geometry" />
        </mxCell>
        <mxCell id="dhido_0Bd_AG6LenjZ0B-18" value="" style="edgeStyle=orthogonalEdgeStyle;rounded=0;orthogonalLoop=1;jettySize=auto;html=1;" parent="dhido_0Bd_AG6LenjZ0B-5" source="dhido_0Bd_AG6LenjZ0B-15" target="dhido_0Bd_AG6LenjZ0B-11" edge="1">
          <mxGeometry relative="1" as="geometry" />
        </mxCell>
        <mxCell id="dhido_0Bd_AG6LenjZ0B-21" value="" style="edgeStyle=orthogonalEdgeStyle;rounded=0;orthogonalLoop=1;jettySize=auto;html=1;" parent="dhido_0Bd_AG6LenjZ0B-5" source="dhido_0Bd_AG6LenjZ0B-15" target="dhido_0Bd_AG6LenjZ0B-8" edge="1">
          <mxGeometry relative="1" as="geometry" />
        </mxCell>
        <mxCell id="dhido_0Bd_AG6LenjZ0B-15" value="canal" style="shape=cylinder3;whiteSpace=wrap;html=1;boundedLbl=1;backgroundOutline=1;size=15;" parent="dhido_0Bd_AG6LenjZ0B-5" vertex="1">
          <mxGeometry x="80" y="40" width="40" height="50" as="geometry" />
        </mxCell>
        <mxCell id="dhido_0Bd_AG6LenjZ0B-6" value="香港环境" style="points=[[0,0],[0.25,0],[0.5,0],[0.75,0],[1,0],[1,0.25],[1,0.5],[1,0.75],[1,1],[0.75,1],[0.5,1],[0.25,1],[0,1],[0,0.75],[0,0.5],[0,0.25]];outlineConnect=0;html=1;whiteSpace=wrap;fontSize=12;fontStyle=0;container=1;pointerEvents=0;collapsible=0;recursiveResize=0;shape=mxgraph.aws4.group;grIcon=mxgraph.aws4.group_on_premise;verticalAlign=top;align=left;spacingLeft=30;dashed=0;fillColor=#d5e8d4;strokeColor=#82b366;" parent="1" vertex="1">
          <mxGeometry x="320" y="40" width="130" height="200" as="geometry" />
        </mxCell>
        <mxCell id="dhido_0Bd_AG6LenjZ0B-12" value="mysql" style="verticalLabelPosition=bottom;html=1;verticalAlign=top;align=center;strokeColor=none;fillColor=#00BEF2;shape=mxgraph.azure.mysql_database;" parent="dhido_0Bd_AG6LenjZ0B-6" vertex="1">
          <mxGeometry x="1.25" y="40" width="37.5" height="50" as="geometry" />
        </mxCell>
        <mxCell id="dhido_0Bd_AG6LenjZ0B-13" value="kafka" style="sketch=0;points=[[0,0,0],[0.25,0,0],[0.5,0,0],[0.75,0,0],[1,0,0],[0,1,0],[0.25,1,0],[0.5,1,0],[0.75,1,0],[1,1,0],[0,0.25,0],[0,0.5,0],[0,0.75,0],[1,0.25,0],[1,0.5,0],[1,0.75,0]];outlineConnect=0;fontColor=#232F3E;gradientColor=#945DF2;gradientDirection=north;fillColor=#5A30B5;strokeColor=#ffffff;dashed=0;verticalLabelPosition=bottom;verticalAlign=top;align=center;html=1;fontSize=12;fontStyle=0;aspect=fixed;shape=mxgraph.aws4.resourceIcon;resIcon=mxgraph.aws4.managed_streaming_for_kafka;" parent="dhido_0Bd_AG6LenjZ0B-6" vertex="1">
          <mxGeometry x="80" y="120" width="40" height="40" as="geometry" />
        </mxCell>
        <mxCell id="dhido_0Bd_AG6LenjZ0B-19" value="" style="edgeStyle=orthogonalEdgeStyle;rounded=0;orthogonalLoop=1;jettySize=auto;html=1;" parent="dhido_0Bd_AG6LenjZ0B-6" source="dhido_0Bd_AG6LenjZ0B-17" target="dhido_0Bd_AG6LenjZ0B-12" edge="1">
          <mxGeometry relative="1" as="geometry" />
        </mxCell>
        <mxCell id="dhido_0Bd_AG6LenjZ0B-23" value="" style="edgeStyle=orthogonalEdgeStyle;rounded=0;orthogonalLoop=1;jettySize=auto;html=1;" parent="dhido_0Bd_AG6LenjZ0B-6" source="dhido_0Bd_AG6LenjZ0B-17" target="dhido_0Bd_AG6LenjZ0B-13" edge="1">
          <mxGeometry relative="1" as="geometry" />
        </mxCell>
        <mxCell id="dhido_0Bd_AG6LenjZ0B-17" value="canal" style="shape=cylinder3;whiteSpace=wrap;html=1;boundedLbl=1;backgroundOutline=1;size=15;" parent="dhido_0Bd_AG6LenjZ0B-6" vertex="1">
          <mxGeometry x="80" y="40" width="40" height="50" as="geometry" />
        </mxCell>
        <mxCell id="dhido_0Bd_AG6LenjZ0B-7" value="欧洲环境" style="points=[[0,0],[0.25,0],[0.5,0],[0.75,0],[1,0],[1,0.25],[1,0.5],[1,0.75],[1,1],[0.75,1],[0.5,1],[0.25,1],[0,1],[0,0.75],[0,0.5],[0,0.25]];outlineConnect=0;html=1;whiteSpace=wrap;fontSize=12;fontStyle=0;container=1;pointerEvents=0;collapsible=0;recursiveResize=0;shape=mxgraph.aws4.group;grIcon=mxgraph.aws4.group_on_premise;strokeColor=#82b366;fillColor=#d5e8d4;verticalAlign=top;align=left;spacingLeft=30;dashed=0;" parent="1" vertex="1">
          <mxGeometry x="600" y="40" width="130" height="200" as="geometry" />
        </mxCell>
        <mxCell id="dhido_0Bd_AG6LenjZ0B-9" value="mysql" style="verticalLabelPosition=bottom;html=1;verticalAlign=top;align=center;strokeColor=none;fillColor=#00BEF2;shape=mxgraph.azure.mysql_database;" parent="dhido_0Bd_AG6LenjZ0B-7" vertex="1">
          <mxGeometry x="1.25" y="40" width="37.5" height="50" as="geometry" />
        </mxCell>
        <mxCell id="dhido_0Bd_AG6LenjZ0B-14" value="kafka" style="sketch=0;points=[[0,0,0],[0.25,0,0],[0.5,0,0],[0.75,0,0],[1,0,0],[0,1,0],[0.25,1,0],[0.5,1,0],[0.75,1,0],[1,1,0],[0,0.25,0],[0,0.5,0],[0,0.75,0],[1,0.25,0],[1,0.5,0],[1,0.75,0]];outlineConnect=0;fontColor=#232F3E;gradientColor=#945DF2;gradientDirection=north;fillColor=#5A30B5;strokeColor=#ffffff;dashed=0;verticalLabelPosition=bottom;verticalAlign=top;align=center;html=1;fontSize=12;fontStyle=0;aspect=fixed;shape=mxgraph.aws4.resourceIcon;resIcon=mxgraph.aws4.managed_streaming_for_kafka;" parent="dhido_0Bd_AG6LenjZ0B-7" vertex="1">
          <mxGeometry x="80" y="120" width="40" height="40" as="geometry" />
        </mxCell>
        <mxCell id="dhido_0Bd_AG6LenjZ0B-20" value="" style="edgeStyle=orthogonalEdgeStyle;rounded=0;orthogonalLoop=1;jettySize=auto;html=1;" parent="dhido_0Bd_AG6LenjZ0B-7" source="dhido_0Bd_AG6LenjZ0B-16" target="dhido_0Bd_AG6LenjZ0B-9" edge="1">
          <mxGeometry relative="1" as="geometry" />
        </mxCell>
        <mxCell id="dhido_0Bd_AG6LenjZ0B-24" value="" style="edgeStyle=orthogonalEdgeStyle;rounded=0;orthogonalLoop=1;jettySize=auto;html=1;" parent="dhido_0Bd_AG6LenjZ0B-7" source="dhido_0Bd_AG6LenjZ0B-16" target="dhido_0Bd_AG6LenjZ0B-14" edge="1">
          <mxGeometry relative="1" as="geometry" />
        </mxCell>
        <mxCell id="dhido_0Bd_AG6LenjZ0B-16" value="canal" style="shape=cylinder3;whiteSpace=wrap;html=1;boundedLbl=1;backgroundOutline=1;size=15;" parent="dhido_0Bd_AG6LenjZ0B-7" vertex="1">
          <mxGeometry x="80" y="40" width="40" height="50" as="geometry" />
        </mxCell>
        <mxCell id="dhido_0Bd_AG6LenjZ0B-38" value="监控平台环境" style="points=[[0,0],[0.25,0],[0.5,0],[0.75,0],[1,0],[1,0.25],[1,0.5],[1,0.75],[1,1],[0.75,1],[0.5,1],[0.25,1],[0,1],[0,0.75],[0,0.5],[0,0.25]];outlineConnect=0;html=1;whiteSpace=wrap;fontSize=12;fontStyle=0;container=1;pointerEvents=0;collapsible=0;recursiveResize=0;shape=mxgraph.aws4.group;grIcon=mxgraph.aws4.group_on_premise;verticalAlign=top;align=left;spacingLeft=30;dashed=0;fillColor=#e1d5e7;strokeColor=#9673a6;" parent="1" vertex="1">
          <mxGeometry x="320" y="480" width="130" height="160" as="geometry" />
        </mxCell>
        <mxCell id="fQrozdUmTU6Yqc6vimsS-53" style="edgeStyle=orthogonalEdgeStyle;rounded=0;orthogonalLoop=1;jettySize=auto;html=1;" edge="1" parent="dhido_0Bd_AG6LenjZ0B-38" source="dhido_0Bd_AG6LenjZ0B-41" target="fQrozdUmTU6Yqc6vimsS-52">
          <mxGeometry relative="1" as="geometry">
            <Array as="points">
              <mxPoint x="100" y="110" />
            </Array>
          </mxGeometry>
        </mxCell>
        <mxCell id="dhido_0Bd_AG6LenjZ0B-41" value="kafka" style="sketch=0;points=[[0,0,0],[0.25,0,0],[0.5,0,0],[0.75,0,0],[1,0,0],[0,1,0],[0.25,1,0],[0.5,1,0],[0.75,1,0],[1,1,0],[0,0.25,0],[0,0.5,0],[0,0.75,0],[1,0.25,0],[1,0.5,0],[1,0.75,0]];outlineConnect=0;fontColor=#232F3E;gradientColor=#945DF2;gradientDirection=north;fillColor=#5A30B5;strokeColor=#ffffff;dashed=0;verticalLabelPosition=bottom;verticalAlign=top;align=center;html=1;fontSize=12;fontStyle=0;aspect=fixed;shape=mxgraph.aws4.resourceIcon;resIcon=mxgraph.aws4.managed_streaming_for_kafka;" parent="dhido_0Bd_AG6LenjZ0B-38" vertex="1">
          <mxGeometry x="80" y="40" width="40" height="40" as="geometry" />
        </mxCell>
        <mxCell id="fQrozdUmTU6Yqc6vimsS-52" value="收集器（access）" style="dashed=0;outlineConnect=0;html=1;align=center;labelPosition=center;verticalLabelPosition=bottom;verticalAlign=top;shape=mxgraph.webicons.java;gradientColor=#DFDEDE" vertex="1" parent="dhido_0Bd_AG6LenjZ0B-38">
          <mxGeometry x="34" y="90" width="40" height="40" as="geometry" />
        </mxCell>
        <mxCell id="dhido_0Bd_AG6LenjZ0B-75" value="现在的方案" style="text;html=1;align=center;verticalAlign=middle;resizable=0;points=[];autosize=1;strokeColor=#A50040;fillColor=#d80073;fontColor=#000000;fontStyle=1;fontSize=16;" parent="1" vertex="1">
          <mxGeometry x="80" y="520" width="100" height="30" as="geometry" />
        </mxCell>
        <mxCell id="fQrozdUmTU6Yqc6vimsS-1" value="新的方案" style="text;html=1;align=center;verticalAlign=middle;resizable=0;points=[];autosize=1;strokeColor=#B20000;fillColor=#e51400;fontColor=#000000;fontStyle=1;fontSize=16;" vertex="1" parent="1">
          <mxGeometry x="120" y="1139" width="90" height="30" as="geometry" />
        </mxCell>
        <mxCell id="fQrozdUmTU6Yqc6vimsS-2" value="杭州环境" style="points=[[0,0],[0.25,0],[0.5,0],[0.75,0],[1,0],[1,0.25],[1,0.5],[1,0.75],[1,1],[0.75,1],[0.5,1],[0.25,1],[0,1],[0,0.75],[0,0.5],[0,0.25]];outlineConnect=0;html=1;whiteSpace=wrap;fontSize=12;fontStyle=0;container=1;pointerEvents=0;collapsible=0;recursiveResize=0;shape=mxgraph.aws4.group;grIcon=mxgraph.aws4.group_on_premise;strokeColor=#82b366;fillColor=#d5e8d4;verticalAlign=top;align=left;spacingLeft=30;dashed=0;" vertex="1" parent="1">
          <mxGeometry x="40" y="800" width="130" height="200" as="geometry" />
        </mxCell>
        <mxCell id="fQrozdUmTU6Yqc6vimsS-3" value="mysql" style="verticalLabelPosition=bottom;html=1;verticalAlign=top;align=center;strokeColor=none;fillColor=#00BEF2;shape=mxgraph.azure.mysql_database;" vertex="1" parent="fQrozdUmTU6Yqc6vimsS-2">
          <mxGeometry x="1.25" y="40" width="37.5" height="50" as="geometry" />
        </mxCell>
        <mxCell id="fQrozdUmTU6Yqc6vimsS-44" value="" style="edgeStyle=orthogonalEdgeStyle;rounded=0;orthogonalLoop=1;jettySize=auto;html=1;" edge="1" parent="fQrozdUmTU6Yqc6vimsS-2" source="fQrozdUmTU6Yqc6vimsS-4" target="fQrozdUmTU6Yqc6vimsS-43">
          <mxGeometry relative="1" as="geometry" />
        </mxCell>
        <mxCell id="fQrozdUmTU6Yqc6vimsS-4" value="kafka" style="sketch=0;points=[[0,0,0],[0.25,0,0],[0.5,0,0],[0.75,0,0],[1,0,0],[0,1,0],[0.25,1,0],[0.5,1,0],[0.75,1,0],[1,1,0],[0,0.25,0],[0,0.5,0],[0,0.75,0],[1,0.25,0],[1,0.5,0],[1,0.75,0]];outlineConnect=0;fontColor=#232F3E;gradientColor=#945DF2;gradientDirection=north;fillColor=#5A30B5;strokeColor=#ffffff;dashed=0;verticalLabelPosition=bottom;verticalAlign=top;align=center;html=1;fontSize=12;fontStyle=0;aspect=fixed;shape=mxgraph.aws4.resourceIcon;resIcon=mxgraph.aws4.managed_streaming_for_kafka;" vertex="1" parent="fQrozdUmTU6Yqc6vimsS-2">
          <mxGeometry x="80" y="120" width="40" height="40" as="geometry" />
        </mxCell>
        <mxCell id="fQrozdUmTU6Yqc6vimsS-5" value="" style="edgeStyle=orthogonalEdgeStyle;rounded=0;orthogonalLoop=1;jettySize=auto;html=1;" edge="1" parent="fQrozdUmTU6Yqc6vimsS-2" source="fQrozdUmTU6Yqc6vimsS-7" target="fQrozdUmTU6Yqc6vimsS-3">
          <mxGeometry relative="1" as="geometry" />
        </mxCell>
        <mxCell id="fQrozdUmTU6Yqc6vimsS-6" value="" style="edgeStyle=orthogonalEdgeStyle;rounded=0;orthogonalLoop=1;jettySize=auto;html=1;" edge="1" parent="fQrozdUmTU6Yqc6vimsS-2" source="fQrozdUmTU6Yqc6vimsS-7" target="fQrozdUmTU6Yqc6vimsS-4">
          <mxGeometry relative="1" as="geometry" />
        </mxCell>
        <mxCell id="fQrozdUmTU6Yqc6vimsS-7" value="canal" style="shape=cylinder3;whiteSpace=wrap;html=1;boundedLbl=1;backgroundOutline=1;size=15;" vertex="1" parent="fQrozdUmTU6Yqc6vimsS-2">
          <mxGeometry x="80" y="40" width="40" height="50" as="geometry" />
        </mxCell>
        <mxCell id="fQrozdUmTU6Yqc6vimsS-43" value="采集器&lt;br&gt;（agent）" style="dashed=0;outlineConnect=0;html=1;align=center;labelPosition=center;verticalLabelPosition=bottom;verticalAlign=top;shape=mxgraph.webicons.java;gradientColor=#DFDEDE" vertex="1" parent="fQrozdUmTU6Yqc6vimsS-2">
          <mxGeometry x="10" y="120" width="40" height="40" as="geometry" />
        </mxCell>
        <mxCell id="dhido_0Bd_AG6LenjZ0B-47" value="采集器环境" style="points=[[0,0],[0.25,0],[0.5,0],[0.75,0],[1,0],[1,0.25],[1,0.5],[1,0.75],[1,1],[0.75,1],[0.5,1],[0.25,1],[0,1],[0,0.75],[0,0.5],[0,0.25]];outlineConnect=0;html=1;whiteSpace=wrap;fontSize=12;fontStyle=0;container=1;pointerEvents=0;collapsible=0;recursiveResize=0;shape=mxgraph.aws4.group;grIcon=mxgraph.aws4.group_on_premise;verticalAlign=top;align=left;spacingLeft=30;dashed=0;fillColor=#fff2cc;strokeColor=#d6b656;" parent="1" vertex="1">
          <mxGeometry x="40" y="280" width="130" height="170" as="geometry" />
        </mxCell>
        <mxCell id="dhido_0Bd_AG6LenjZ0B-52" value="canal" style="shape=cylinder3;whiteSpace=wrap;html=1;boundedLbl=1;backgroundOutline=1;size=15;" parent="dhido_0Bd_AG6LenjZ0B-47" vertex="1">
          <mxGeometry y="40" width="40" height="50" as="geometry" />
        </mxCell>
        <mxCell id="dhido_0Bd_AG6LenjZ0B-50" value="kafka" style="sketch=0;points=[[0,0,0],[0.25,0,0],[0.5,0,0],[0.75,0,0],[1,0,0],[0,1,0],[0.25,1,0],[0.5,1,0],[0.75,1,0],[1,1,0],[0,0.25,0],[0,0.5,0],[0,0.75,0],[1,0.25,0],[1,0.5,0],[1,0.75,0]];outlineConnect=0;fontColor=#232F3E;gradientColor=#945DF2;gradientDirection=north;fillColor=#5A30B5;strokeColor=#ffffff;dashed=0;verticalLabelPosition=bottom;verticalAlign=top;align=center;html=1;fontSize=12;fontStyle=0;aspect=fixed;shape=mxgraph.aws4.resourceIcon;resIcon=mxgraph.aws4.managed_streaming_for_kafka;" parent="dhido_0Bd_AG6LenjZ0B-47" vertex="1">
          <mxGeometry x="80" y="45" width="40" height="40" as="geometry" />
        </mxCell>
        <mxCell id="dhido_0Bd_AG6LenjZ0B-64" value="" style="edgeStyle=orthogonalEdgeStyle;rounded=0;orthogonalLoop=1;jettySize=auto;html=1;" parent="dhido_0Bd_AG6LenjZ0B-47" source="dhido_0Bd_AG6LenjZ0B-52" target="dhido_0Bd_AG6LenjZ0B-50" edge="1">
          <mxGeometry relative="1" as="geometry" />
        </mxCell>
        <mxCell id="fQrozdUmTU6Yqc6vimsS-15" style="rounded=0;orthogonalLoop=1;jettySize=auto;html=1;" edge="1" parent="dhido_0Bd_AG6LenjZ0B-47" source="fQrozdUmTU6Yqc6vimsS-14" target="dhido_0Bd_AG6LenjZ0B-50">
          <mxGeometry relative="1" as="geometry" />
        </mxCell>
        <mxCell id="fQrozdUmTU6Yqc6vimsS-14" value="采集器（agent）" style="dashed=0;outlineConnect=0;html=1;align=center;labelPosition=center;verticalLabelPosition=bottom;verticalAlign=top;shape=mxgraph.webicons.java;gradientColor=#DFDEDE" vertex="1" parent="dhido_0Bd_AG6LenjZ0B-47">
          <mxGeometry x="30" y="100" width="40" height="40" as="geometry" />
        </mxCell>
        <mxCell id="dhido_0Bd_AG6LenjZ0B-63" style="edgeStyle=orthogonalEdgeStyle;rounded=0;orthogonalLoop=1;jettySize=auto;html=1;" parent="1" source="dhido_0Bd_AG6LenjZ0B-52" target="dhido_0Bd_AG6LenjZ0B-11" edge="1">
          <mxGeometry relative="1" as="geometry" />
        </mxCell>
        <mxCell id="dhido_0Bd_AG6LenjZ0B-10" value="采集器环境" style="points=[[0,0],[0.25,0],[0.5,0],[0.75,0],[1,0],[1,0.25],[1,0.5],[1,0.75],[1,1],[0.75,1],[0.5,1],[0.25,1],[0,1],[0,0.75],[0,0.5],[0,0.25]];outlineConnect=0;html=1;whiteSpace=wrap;fontSize=12;fontStyle=0;container=1;pointerEvents=0;collapsible=0;recursiveResize=0;shape=mxgraph.aws4.group;grIcon=mxgraph.aws4.group_on_premise;verticalAlign=top;align=left;spacingLeft=30;dashed=0;fillColor=#fff2cc;strokeColor=#d6b656;" parent="1" vertex="1">
          <mxGeometry x="320" y="280" width="130" height="170" as="geometry" />
        </mxCell>
        <mxCell id="dhido_0Bd_AG6LenjZ0B-26" value="kafka" style="sketch=0;points=[[0,0,0],[0.25,0,0],[0.5,0,0],[0.75,0,0],[1,0,0],[0,1,0],[0.25,1,0],[0.5,1,0],[0.75,1,0],[1,1,0],[0,0.25,0],[0,0.5,0],[0,0.75,0],[1,0.25,0],[1,0.5,0],[1,0.75,0]];outlineConnect=0;fontColor=#232F3E;gradientColor=#945DF2;gradientDirection=north;fillColor=#5A30B5;strokeColor=#ffffff;dashed=0;verticalLabelPosition=bottom;verticalAlign=top;align=center;html=1;fontSize=12;fontStyle=0;aspect=fixed;shape=mxgraph.aws4.resourceIcon;resIcon=mxgraph.aws4.managed_streaming_for_kafka;" parent="dhido_0Bd_AG6LenjZ0B-10" vertex="1">
          <mxGeometry x="80" y="45" width="40" height="40" as="geometry" />
        </mxCell>
        <mxCell id="dhido_0Bd_AG6LenjZ0B-72" value="" style="edgeStyle=orthogonalEdgeStyle;rounded=0;orthogonalLoop=1;jettySize=auto;html=1;" parent="dhido_0Bd_AG6LenjZ0B-10" source="dhido_0Bd_AG6LenjZ0B-30" target="dhido_0Bd_AG6LenjZ0B-26" edge="1">
          <mxGeometry relative="1" as="geometry" />
        </mxCell>
        <mxCell id="dhido_0Bd_AG6LenjZ0B-30" value="canal" style="shape=cylinder3;whiteSpace=wrap;html=1;boundedLbl=1;backgroundOutline=1;size=15;" parent="dhido_0Bd_AG6LenjZ0B-10" vertex="1">
          <mxGeometry y="40" width="40" height="50" as="geometry" />
        </mxCell>
        <mxCell id="fQrozdUmTU6Yqc6vimsS-18" style="rounded=0;orthogonalLoop=1;jettySize=auto;html=1;" edge="1" parent="dhido_0Bd_AG6LenjZ0B-10" source="fQrozdUmTU6Yqc6vimsS-17" target="dhido_0Bd_AG6LenjZ0B-26">
          <mxGeometry relative="1" as="geometry" />
        </mxCell>
        <mxCell id="fQrozdUmTU6Yqc6vimsS-17" value="采集器（agent）" style="dashed=0;outlineConnect=0;html=1;align=center;labelPosition=center;verticalLabelPosition=bottom;verticalAlign=top;shape=mxgraph.webicons.java;gradientColor=#DFDEDE" vertex="1" parent="dhido_0Bd_AG6LenjZ0B-10">
          <mxGeometry x="30" y="100" width="40" height="40" as="geometry" />
        </mxCell>
        <mxCell id="dhido_0Bd_AG6LenjZ0B-68" style="edgeStyle=orthogonalEdgeStyle;rounded=0;orthogonalLoop=1;jettySize=auto;html=1;" parent="1" source="dhido_0Bd_AG6LenjZ0B-30" target="dhido_0Bd_AG6LenjZ0B-12" edge="1">
          <mxGeometry relative="1" as="geometry" />
        </mxCell>
        <mxCell id="dhido_0Bd_AG6LenjZ0B-55" value="采集器环境" style="points=[[0,0],[0.25,0],[0.5,0],[0.75,0],[1,0],[1,0.25],[1,0.5],[1,0.75],[1,1],[0.75,1],[0.5,1],[0.25,1],[0,1],[0,0.75],[0,0.5],[0,0.25]];outlineConnect=0;html=1;whiteSpace=wrap;fontSize=12;fontStyle=0;container=1;pointerEvents=0;collapsible=0;recursiveResize=0;shape=mxgraph.aws4.group;grIcon=mxgraph.aws4.group_on_premise;verticalAlign=top;align=left;spacingLeft=30;dashed=0;fillColor=#fff2cc;strokeColor=#d6b656;" parent="1" vertex="1">
          <mxGeometry x="600" y="280" width="130" height="170" as="geometry" />
        </mxCell>
        <mxCell id="dhido_0Bd_AG6LenjZ0B-58" value="kafka" style="sketch=0;points=[[0,0,0],[0.25,0,0],[0.5,0,0],[0.75,0,0],[1,0,0],[0,1,0],[0.25,1,0],[0.5,1,0],[0.75,1,0],[1,1,0],[0,0.25,0],[0,0.5,0],[0,0.75,0],[1,0.25,0],[1,0.5,0],[1,0.75,0]];outlineConnect=0;fontColor=#232F3E;gradientColor=#945DF2;gradientDirection=north;fillColor=#5A30B5;strokeColor=#ffffff;dashed=0;verticalLabelPosition=bottom;verticalAlign=top;align=center;html=1;fontSize=12;fontStyle=0;aspect=fixed;shape=mxgraph.aws4.resourceIcon;resIcon=mxgraph.aws4.managed_streaming_for_kafka;" parent="dhido_0Bd_AG6LenjZ0B-55" vertex="1">
          <mxGeometry x="80" y="45" width="40" height="40" as="geometry" />
        </mxCell>
        <mxCell id="dhido_0Bd_AG6LenjZ0B-71" value="" style="edgeStyle=orthogonalEdgeStyle;rounded=0;orthogonalLoop=1;jettySize=auto;html=1;" parent="dhido_0Bd_AG6LenjZ0B-55" source="dhido_0Bd_AG6LenjZ0B-60" target="dhido_0Bd_AG6LenjZ0B-58" edge="1">
          <mxGeometry relative="1" as="geometry" />
        </mxCell>
        <mxCell id="dhido_0Bd_AG6LenjZ0B-60" value="canal" style="shape=cylinder3;whiteSpace=wrap;html=1;boundedLbl=1;backgroundOutline=1;size=15;" parent="dhido_0Bd_AG6LenjZ0B-55" vertex="1">
          <mxGeometry y="40" width="40" height="50" as="geometry" />
        </mxCell>
        <mxCell id="fQrozdUmTU6Yqc6vimsS-21" style="rounded=0;orthogonalLoop=1;jettySize=auto;html=1;entryX=0;entryY=1;entryDx=0;entryDy=0;entryPerimeter=0;" edge="1" parent="dhido_0Bd_AG6LenjZ0B-55" source="fQrozdUmTU6Yqc6vimsS-19" target="dhido_0Bd_AG6LenjZ0B-58">
          <mxGeometry relative="1" as="geometry" />
        </mxCell>
        <mxCell id="fQrozdUmTU6Yqc6vimsS-19" value="采集器（agent）" style="dashed=0;outlineConnect=0;html=1;align=center;labelPosition=center;verticalLabelPosition=bottom;verticalAlign=top;shape=mxgraph.webicons.java;gradientColor=#DFDEDE" vertex="1" parent="dhido_0Bd_AG6LenjZ0B-55">
          <mxGeometry x="30" y="100" width="40" height="40" as="geometry" />
        </mxCell>
        <mxCell id="dhido_0Bd_AG6LenjZ0B-69" style="edgeStyle=orthogonalEdgeStyle;rounded=0;orthogonalLoop=1;jettySize=auto;html=1;" parent="1" source="dhido_0Bd_AG6LenjZ0B-60" target="dhido_0Bd_AG6LenjZ0B-9" edge="1">
          <mxGeometry relative="1" as="geometry" />
        </mxCell>
        <mxCell id="fQrozdUmTU6Yqc6vimsS-16" style="edgeStyle=orthogonalEdgeStyle;rounded=0;orthogonalLoop=1;jettySize=auto;html=1;entryX=0;entryY=0.5;entryDx=0;entryDy=0;entryPerimeter=0;" edge="1" parent="1" source="fQrozdUmTU6Yqc6vimsS-14" target="dhido_0Bd_AG6LenjZ0B-41">
          <mxGeometry relative="1" as="geometry" />
        </mxCell>
        <mxCell id="dhido_0Bd_AG6LenjZ0B-46" style="edgeStyle=orthogonalEdgeStyle;rounded=0;orthogonalLoop=1;jettySize=auto;html=1;" parent="1" source="fQrozdUmTU6Yqc6vimsS-17" target="dhido_0Bd_AG6LenjZ0B-41" edge="1">
          <mxGeometry relative="1" as="geometry" />
        </mxCell>
        <mxCell id="dhido_0Bd_AG6LenjZ0B-67" style="edgeStyle=orthogonalEdgeStyle;rounded=0;orthogonalLoop=1;jettySize=auto;html=1;entryX=1;entryY=0.5;entryDx=0;entryDy=0;entryPerimeter=0;" parent="1" source="fQrozdUmTU6Yqc6vimsS-19" target="dhido_0Bd_AG6LenjZ0B-41" edge="1">
          <mxGeometry relative="1" as="geometry" />
        </mxCell>
        <mxCell id="fQrozdUmTU6Yqc6vimsS-22" value="欧洲环境" style="points=[[0,0],[0.25,0],[0.5,0],[0.75,0],[1,0],[1,0.25],[1,0.5],[1,0.75],[1,1],[0.75,1],[0.5,1],[0.25,1],[0,1],[0,0.75],[0,0.5],[0,0.25]];outlineConnect=0;html=1;whiteSpace=wrap;fontSize=12;fontStyle=0;container=1;pointerEvents=0;collapsible=0;recursiveResize=0;shape=mxgraph.aws4.group;grIcon=mxgraph.aws4.group_on_premise;strokeColor=#82b366;fillColor=#d5e8d4;verticalAlign=top;align=left;spacingLeft=30;dashed=0;" vertex="1" parent="1">
          <mxGeometry x="600" y="800" width="130" height="200" as="geometry" />
        </mxCell>
        <mxCell id="fQrozdUmTU6Yqc6vimsS-23" value="mysql" style="verticalLabelPosition=bottom;html=1;verticalAlign=top;align=center;strokeColor=none;fillColor=#00BEF2;shape=mxgraph.azure.mysql_database;" vertex="1" parent="fQrozdUmTU6Yqc6vimsS-22">
          <mxGeometry x="1.25" y="40" width="37.5" height="50" as="geometry" />
        </mxCell>
        <mxCell id="fQrozdUmTU6Yqc6vimsS-48" value="" style="edgeStyle=orthogonalEdgeStyle;rounded=0;orthogonalLoop=1;jettySize=auto;html=1;" edge="1" parent="fQrozdUmTU6Yqc6vimsS-22" source="fQrozdUmTU6Yqc6vimsS-25" target="fQrozdUmTU6Yqc6vimsS-45">
          <mxGeometry relative="1" as="geometry" />
        </mxCell>
        <mxCell id="fQrozdUmTU6Yqc6vimsS-25" value="kafka" style="sketch=0;points=[[0,0,0],[0.25,0,0],[0.5,0,0],[0.75,0,0],[1,0,0],[0,1,0],[0.25,1,0],[0.5,1,0],[0.75,1,0],[1,1,0],[0,0.25,0],[0,0.5,0],[0,0.75,0],[1,0.25,0],[1,0.5,0],[1,0.75,0]];outlineConnect=0;fontColor=#232F3E;gradientColor=#945DF2;gradientDirection=north;fillColor=#5A30B5;strokeColor=#ffffff;dashed=0;verticalLabelPosition=bottom;verticalAlign=top;align=center;html=1;fontSize=12;fontStyle=0;aspect=fixed;shape=mxgraph.aws4.resourceIcon;resIcon=mxgraph.aws4.managed_streaming_for_kafka;" vertex="1" parent="fQrozdUmTU6Yqc6vimsS-22">
          <mxGeometry x="80" y="120" width="40" height="40" as="geometry" />
        </mxCell>
        <mxCell id="fQrozdUmTU6Yqc6vimsS-26" value="" style="edgeStyle=orthogonalEdgeStyle;rounded=0;orthogonalLoop=1;jettySize=auto;html=1;" edge="1" parent="fQrozdUmTU6Yqc6vimsS-22" source="fQrozdUmTU6Yqc6vimsS-28" target="fQrozdUmTU6Yqc6vimsS-23">
          <mxGeometry relative="1" as="geometry" />
        </mxCell>
        <mxCell id="fQrozdUmTU6Yqc6vimsS-27" value="" style="edgeStyle=orthogonalEdgeStyle;rounded=0;orthogonalLoop=1;jettySize=auto;html=1;" edge="1" parent="fQrozdUmTU6Yqc6vimsS-22" source="fQrozdUmTU6Yqc6vimsS-28" target="fQrozdUmTU6Yqc6vimsS-25">
          <mxGeometry relative="1" as="geometry" />
        </mxCell>
        <mxCell id="fQrozdUmTU6Yqc6vimsS-28" value="canal" style="shape=cylinder3;whiteSpace=wrap;html=1;boundedLbl=1;backgroundOutline=1;size=15;" vertex="1" parent="fQrozdUmTU6Yqc6vimsS-22">
          <mxGeometry x="80" y="40" width="40" height="50" as="geometry" />
        </mxCell>
        <mxCell id="fQrozdUmTU6Yqc6vimsS-45" value="采集器&lt;br&gt;（agent）" style="dashed=0;outlineConnect=0;html=1;align=center;labelPosition=center;verticalLabelPosition=bottom;verticalAlign=top;shape=mxgraph.webicons.java;gradientColor=#DFDEDE" vertex="1" parent="fQrozdUmTU6Yqc6vimsS-22">
          <mxGeometry x="10" y="120" width="40" height="40" as="geometry" />
        </mxCell>
        <mxCell id="fQrozdUmTU6Yqc6vimsS-30" value="香港环境" style="points=[[0,0],[0.25,0],[0.5,0],[0.75,0],[1,0],[1,0.25],[1,0.5],[1,0.75],[1,1],[0.75,1],[0.5,1],[0.25,1],[0,1],[0,0.75],[0,0.5],[0,0.25]];outlineConnect=0;html=1;whiteSpace=wrap;fontSize=12;fontStyle=0;container=1;pointerEvents=0;collapsible=0;recursiveResize=0;shape=mxgraph.aws4.group;grIcon=mxgraph.aws4.group_on_premise;strokeColor=#82b366;fillColor=#d5e8d4;verticalAlign=top;align=left;spacingLeft=30;dashed=0;" vertex="1" parent="1">
          <mxGeometry x="320" y="800" width="130" height="200" as="geometry" />
        </mxCell>
        <mxCell id="fQrozdUmTU6Yqc6vimsS-31" value="mysql" style="verticalLabelPosition=bottom;html=1;verticalAlign=top;align=center;strokeColor=none;fillColor=#00BEF2;shape=mxgraph.azure.mysql_database;" vertex="1" parent="fQrozdUmTU6Yqc6vimsS-30">
          <mxGeometry x="1.25" y="40" width="37.5" height="50" as="geometry" />
        </mxCell>
        <mxCell id="fQrozdUmTU6Yqc6vimsS-47" value="" style="edgeStyle=orthogonalEdgeStyle;rounded=0;orthogonalLoop=1;jettySize=auto;html=1;" edge="1" parent="fQrozdUmTU6Yqc6vimsS-30" source="fQrozdUmTU6Yqc6vimsS-33" target="fQrozdUmTU6Yqc6vimsS-46">
          <mxGeometry relative="1" as="geometry" />
        </mxCell>
        <mxCell id="fQrozdUmTU6Yqc6vimsS-33" value="kafka" style="sketch=0;points=[[0,0,0],[0.25,0,0],[0.5,0,0],[0.75,0,0],[1,0,0],[0,1,0],[0.25,1,0],[0.5,1,0],[0.75,1,0],[1,1,0],[0,0.25,0],[0,0.5,0],[0,0.75,0],[1,0.25,0],[1,0.5,0],[1,0.75,0]];outlineConnect=0;fontColor=#232F3E;gradientColor=#945DF2;gradientDirection=north;fillColor=#5A30B5;strokeColor=#ffffff;dashed=0;verticalLabelPosition=bottom;verticalAlign=top;align=center;html=1;fontSize=12;fontStyle=0;aspect=fixed;shape=mxgraph.aws4.resourceIcon;resIcon=mxgraph.aws4.managed_streaming_for_kafka;" vertex="1" parent="fQrozdUmTU6Yqc6vimsS-30">
          <mxGeometry x="80" y="120" width="40" height="40" as="geometry" />
        </mxCell>
        <mxCell id="fQrozdUmTU6Yqc6vimsS-34" value="" style="edgeStyle=orthogonalEdgeStyle;rounded=0;orthogonalLoop=1;jettySize=auto;html=1;" edge="1" parent="fQrozdUmTU6Yqc6vimsS-30" source="fQrozdUmTU6Yqc6vimsS-36" target="fQrozdUmTU6Yqc6vimsS-31">
          <mxGeometry relative="1" as="geometry" />
        </mxCell>
        <mxCell id="fQrozdUmTU6Yqc6vimsS-35" value="" style="edgeStyle=orthogonalEdgeStyle;rounded=0;orthogonalLoop=1;jettySize=auto;html=1;" edge="1" parent="fQrozdUmTU6Yqc6vimsS-30" source="fQrozdUmTU6Yqc6vimsS-36" target="fQrozdUmTU6Yqc6vimsS-33">
          <mxGeometry relative="1" as="geometry" />
        </mxCell>
        <mxCell id="fQrozdUmTU6Yqc6vimsS-36" value="canal" style="shape=cylinder3;whiteSpace=wrap;html=1;boundedLbl=1;backgroundOutline=1;size=15;" vertex="1" parent="fQrozdUmTU6Yqc6vimsS-30">
          <mxGeometry x="80" y="40" width="40" height="50" as="geometry" />
        </mxCell>
        <mxCell id="fQrozdUmTU6Yqc6vimsS-46" value="采集器&lt;br&gt;（agent）" style="dashed=0;outlineConnect=0;html=1;align=center;labelPosition=center;verticalLabelPosition=bottom;verticalAlign=top;shape=mxgraph.webicons.java;gradientColor=#DFDEDE" vertex="1" parent="fQrozdUmTU6Yqc6vimsS-30">
          <mxGeometry x="10" y="120" width="40" height="40" as="geometry" />
        </mxCell>
        <mxCell id="fQrozdUmTU6Yqc6vimsS-38" value="监控平台环境" style="points=[[0,0],[0.25,0],[0.5,0],[0.75,0],[1,0],[1,0.25],[1,0.5],[1,0.75],[1,1],[0.75,1],[0.5,1],[0.25,1],[0,1],[0,0.75],[0,0.5],[0,0.25]];outlineConnect=0;html=1;whiteSpace=wrap;fontSize=12;fontStyle=0;container=1;pointerEvents=0;collapsible=0;recursiveResize=0;shape=mxgraph.aws4.group;grIcon=mxgraph.aws4.group_on_premise;verticalAlign=top;align=left;spacingLeft=30;dashed=0;fillColor=#e1d5e7;strokeColor=#9673a6;" vertex="1" parent="1">
          <mxGeometry x="320" y="1040" width="130" height="160" as="geometry" />
        </mxCell>
        <mxCell id="fQrozdUmTU6Yqc6vimsS-55" style="edgeStyle=orthogonalEdgeStyle;rounded=0;orthogonalLoop=1;jettySize=auto;html=1;" edge="1" parent="fQrozdUmTU6Yqc6vimsS-38" source="fQrozdUmTU6Yqc6vimsS-39" target="fQrozdUmTU6Yqc6vimsS-54">
          <mxGeometry relative="1" as="geometry">
            <Array as="points">
              <mxPoint x="30" y="109" />
            </Array>
          </mxGeometry>
        </mxCell>
        <mxCell id="fQrozdUmTU6Yqc6vimsS-39" value="kafka" style="sketch=0;points=[[0,0,0],[0.25,0,0],[0.5,0,0],[0.75,0,0],[1,0,0],[0,1,0],[0.25,1,0],[0.5,1,0],[0.75,1,0],[1,1,0],[0,0.25,0],[0,0.5,0],[0,0.75,0],[1,0.25,0],[1,0.5,0],[1,0.75,0]];outlineConnect=0;fontColor=#232F3E;gradientColor=#945DF2;gradientDirection=north;fillColor=#5A30B5;strokeColor=#ffffff;dashed=0;verticalLabelPosition=bottom;verticalAlign=top;align=center;html=1;fontSize=12;fontStyle=0;aspect=fixed;shape=mxgraph.aws4.resourceIcon;resIcon=mxgraph.aws4.managed_streaming_for_kafka;" vertex="1" parent="fQrozdUmTU6Yqc6vimsS-38">
          <mxGeometry x="10" y="40" width="40" height="40" as="geometry" />
        </mxCell>
        <mxCell id="fQrozdUmTU6Yqc6vimsS-54" value="收集器（access）" style="dashed=0;outlineConnect=0;html=1;align=center;labelPosition=center;verticalLabelPosition=bottom;verticalAlign=top;shape=mxgraph.webicons.java;gradientColor=#DFDEDE" vertex="1" parent="fQrozdUmTU6Yqc6vimsS-38">
          <mxGeometry x="54" y="89" width="40" height="40" as="geometry" />
        </mxCell>
        <mxCell id="fQrozdUmTU6Yqc6vimsS-40" style="edgeStyle=orthogonalEdgeStyle;rounded=0;orthogonalLoop=1;jettySize=auto;html=1;entryX=0;entryY=0.5;entryDx=0;entryDy=0;entryPerimeter=0;" edge="1" parent="1" source="fQrozdUmTU6Yqc6vimsS-43" target="fQrozdUmTU6Yqc6vimsS-39">
          <mxGeometry relative="1" as="geometry">
            <mxPoint x="65" y="965" as="sourcePoint" />
            <Array as="points">
              <mxPoint x="70" y="1100" />
            </Array>
          </mxGeometry>
        </mxCell>
        <mxCell id="fQrozdUmTU6Yqc6vimsS-50" style="edgeStyle=orthogonalEdgeStyle;rounded=0;orthogonalLoop=1;jettySize=auto;html=1;entryX=1;entryY=0.5;entryDx=0;entryDy=0;entryPerimeter=0;" edge="1" parent="1" source="fQrozdUmTU6Yqc6vimsS-45" target="fQrozdUmTU6Yqc6vimsS-39">
          <mxGeometry relative="1" as="geometry">
            <Array as="points">
              <mxPoint x="630" y="1100" />
            </Array>
          </mxGeometry>
        </mxCell>
        <mxCell id="fQrozdUmTU6Yqc6vimsS-56" style="edgeStyle=orthogonalEdgeStyle;rounded=0;orthogonalLoop=1;jettySize=auto;html=1;" edge="1" parent="1" source="fQrozdUmTU6Yqc6vimsS-46" target="fQrozdUmTU6Yqc6vimsS-39">
          <mxGeometry relative="1" as="geometry" />
        </mxCell>
      </root>
    </mxGraphModel>
  </diagram>
</mxfile>
